<svg data-v-423bf9ae="" xmlns="http://www.w3.org/2000/svg" viewBox="0 0 265.01065969962514 60" class="font"><!----><!----><defs data-v-423bf9ae=""><linearGradient data-v-423bf9ae="" gradientTransform="rotate(25)" id="012ac1ac-dc0c-4f26-b80d-ee0510b75322" x1="0%" y1="0%" x2="100%" y2="0%"><stop data-v-423bf9ae="" offset="0%" style="stop-color: rgb(233, 13, 218); stop-opacity: 1;"></stop><stop data-v-423bf9ae="" offset="100%" style="stop-color: rgb(21, 207, 241); stop-opacity: 1;"></stop></linearGradient></defs><g data-v-423bf9ae="" id="1a0be5e5-978d-4735-80c7-0348a9801627" fill="url(#012ac1ac-dc0c-4f26-b80d-ee0510b75322)" transform="matrix(6.396588325500488,0,0,6.396588325500488,-1.343280553817749,-23.539443969726562)"><path d="M12.36 4.38L11.23 4.51Q11.20 5.38 11.20 6.25Q11.20 7.13 11.20 8.02L11.20 8.02L11.20 8.51Q11.20 9.39 11.20 10.27Q11.20 11.14 11.23 12.03L11.23 12.03L12.36 12.15L12.36 12.85L7.99 12.85L7.99 12.15L9.13 12.03Q9.16 11.16 9.16 10.28Q9.16 9.41 9.16 8.51L9.16 8.51L9.16 6.05L6.02 12.85L5.46 12.85L2.30 6.06L2.30 11.97L3.61 12.15L3.61 12.85L0.21 12.85L0.21 12.15L1.53 11.97L1.53 4.51L0.36 4.38L0.36 3.68L3.18 3.68L6.34 10.26L9.42 3.68L12.36 3.68L12.36 4.38ZM16.83 11.61L16.83 9.24Q16.56 9.31 16.33 9.39Q16.10 9.46 15.93 9.53L15.93 9.53Q15.32 9.77 15.08 10.14Q14.84 10.50 14.84 10.95L14.84 10.95Q14.84 11.23 14.92 11.40Q14.99 11.56 15.11 11.68L15.11 11.68Q15.40 11.97 15.89 11.97L15.89 11.97Q16.11 11.97 16.32 11.89Q16.53 11.82 16.83 11.61L16.83 11.61ZM19.57 11.70L19.94 11.97Q19.66 12.54 19.30 12.77Q18.94 12.99 18.41 12.99L18.41 12.99Q17.84 12.99 17.46 12.77Q17.08 12.54 16.93 12.18L16.93 12.18Q16.45 12.61 16.01 12.84Q15.57 13.06 14.91 13.06L14.91 13.06Q14.07 13.06 13.54 12.63Q13.02 12.21 13.02 11.38L13.02 11.38Q13.02 11.06 13.13 10.75Q13.23 10.43 13.52 10.13Q13.80 9.83 14.31 9.55Q14.81 9.27 15.61 9.00L15.61 9.00Q15.85 8.92 16.17 8.83Q16.49 8.74 16.83 8.64L16.83 8.64L16.83 8.22Q16.83 7.34 16.56 6.96Q16.30 6.58 15.62 6.58L15.62 6.58Q15.51 6.58 15.41 6.59Q15.30 6.59 15.19 6.61L15.19 6.61L15.08 7.42Q15.01 7.97 14.74 8.23Q14.48 8.50 14.11 8.50L14.11 8.50Q13.79 8.50 13.56 8.30Q13.33 8.11 13.26 7.78L13.26 7.78Q13.36 6.96 14.14 6.42Q14.92 5.88 16.27 5.88L16.27 5.88Q16.93 5.88 17.39 6.03Q17.86 6.17 18.16 6.50Q18.45 6.83 18.59 7.37Q18.73 7.91 18.73 8.69L18.73 8.69L18.73 11.58Q18.73 11.80 18.82 11.94Q18.90 12.08 19.08 12.08L19.08 12.08Q19.22 12.08 19.31 12.00Q19.39 11.91 19.50 11.79L19.50 11.79L19.57 11.70ZM26.38 12.07L27.26 12.24L27.26 12.85L23.59 12.85L23.59 12.24L24.28 12.12L23.11 10.30L21.88 12.10L22.69 12.24L22.69 12.85L20.01 12.85L20.01 12.24L21.10 12.05L22.78 9.77L20.83 6.86L20.02 6.75L20.02 6.13L23.56 6.13L23.56 6.75L22.90 6.86L23.98 8.53L25.13 6.86L24.53 6.75L24.53 6.13L26.80 6.13L26.80 6.75L25.87 6.92L24.30 9.02L26.38 12.07ZM30.65 9.23L32.93 9.23L31.81 6.10L30.65 9.23ZM35.98 12.05L36.90 12.17L36.90 12.85L32.79 12.85L32.79 12.17L33.94 12.03L33.21 10.00L30.37 10.00L29.62 11.98L30.76 12.15L30.76 12.85L27.61 12.85L27.61 12.15L28.85 11.97L31.96 3.68L32.80 3.68L35.98 12.05ZM41.64 4.38L40.50 4.51Q40.47 5.38 40.47 6.25Q40.47 7.13 40.47 8.02L40.47 8.02L40.47 8.51Q40.47 9.39 40.47 10.27Q40.47 11.14 40.50 12.03L40.50 12.03L41.64 12.15L41.64 12.85L37.27 12.85L37.27 12.15L38.40 12.03Q38.43 11.16 38.43 10.28Q38.43 9.41 38.43 8.51L38.43 8.51L38.43 8.02Q38.43 7.14 38.43 6.27Q38.43 5.39 38.40 4.51L38.40 4.51L37.27 4.38L37.27 3.68L41.64 3.68L41.64 4.38Z"></path></g><!----><!----></svg>