<svg data-v-423bf9ae="" xmlns="http://www.w3.org/2000/svg" viewBox="0 0 303.8607329751287 60" class="font"><!----><!----><!----><g data-v-423bf9ae="" id="f1a41db1-8953-4d93-928f-44fd3ee185c1" fill="black" transform="matrix(6.329113483428955,0,0,6.329113483428955,-2.2784743309020996,-22.658222198486328)"><path d="M12.19 4.23L10.99 4.35Q10.96 5.24 10.96 6.13Q10.96 7.01 10.96 7.92L10.96 7.92L10.96 8.51Q10.96 9.41 10.96 10.30Q10.96 11.19 10.99 12.08L10.99 12.08L12.19 12.21L12.19 12.85L8.09 12.85L8.09 12.21L9.25 12.08Q9.28 11.20 9.28 10.31Q9.28 9.42 9.28 8.51L9.28 8.51L9.28 5.80L6.10 12.85L5.60 12.85L2.41 5.77L2.41 12.03L3.64 12.21L3.64 12.85L0.36 12.85L0.36 12.21L1.67 12.03L1.67 4.37L0.45 4.23L0.45 3.58L3.11 3.58L6.33 10.61L9.53 3.58L12.19 3.58L12.19 4.23ZM16.86 11.49L16.86 9.23Q16.53 9.32 16.25 9.42Q15.96 9.52 15.76 9.59L15.76 9.59Q15.01 9.88 14.77 10.26Q14.53 10.63 14.53 11.00L14.53 11.00Q14.53 11.28 14.61 11.45Q14.69 11.62 14.81 11.75L14.81 11.75Q15.12 12.05 15.62 12.05L15.62 12.05Q15.90 12.05 16.16 11.94Q16.42 11.82 16.86 11.49L16.86 11.49ZM19.35 11.83L19.67 12.11Q19.40 12.63 19.09 12.81Q18.77 12.99 18.33 12.99L18.33 12.99Q17.74 12.99 17.39 12.74Q17.04 12.49 16.91 12.05L16.91 12.05Q16.66 12.31 16.43 12.50Q16.20 12.68 15.97 12.81Q15.74 12.94 15.47 13.00Q15.20 13.06 14.88 13.06L14.88 13.06Q14.08 13.06 13.54 12.62Q12.99 12.18 12.99 11.34L12.99 11.34Q12.99 11.03 13.09 10.74Q13.19 10.44 13.46 10.16Q13.73 9.87 14.22 9.60Q14.70 9.34 15.46 9.07L15.46 9.07Q15.74 8.97 16.11 8.87Q16.48 8.76 16.86 8.65L16.86 8.65L16.86 8.27Q16.86 7.32 16.57 6.96Q16.28 6.59 15.60 6.59L15.60 6.59Q15.47 6.59 15.32 6.61Q15.18 6.62 15.02 6.65L15.02 6.65L14.83 7.55Q14.66 8.43 13.96 8.43L13.96 8.43Q13.65 8.43 13.45 8.25Q13.26 8.06 13.22 7.77L13.22 7.77Q13.36 6.96 14.11 6.45Q14.87 5.94 16.09 5.94L16.09 5.94Q17.29 5.94 17.84 6.52Q18.40 7.11 18.40 8.57L18.40 8.57L18.40 11.51Q18.40 12.17 18.80 12.17L18.80 12.17Q18.96 12.17 19.07 12.09Q19.18 12.01 19.28 11.90L19.28 11.90L19.35 11.83ZM25.94 12.12L26.85 12.29L26.85 12.85L23.37 12.85L23.37 12.29L24.19 12.14L22.95 10.22L21.59 12.12L22.50 12.29L22.50 12.85L19.81 12.85L19.81 12.29L20.80 12.11L22.60 9.70L20.69 6.90L19.85 6.78L19.85 6.19L23.13 6.19L23.13 6.78L22.40 6.90L23.59 8.69L24.86 6.92L24.12 6.78L24.12 6.19L26.49 6.19L26.49 6.78L25.65 6.93L23.93 9.20L25.94 12.12ZM33.26 12.12L34.17 12.29L34.17 12.85L30.69 12.85L30.69 12.29L31.51 12.14L30.27 10.22L28.91 12.12L29.82 12.29L29.82 12.85L27.13 12.85L27.13 12.29L28.13 12.11L29.92 9.70L28.01 6.90L27.17 6.78L27.17 6.19L30.45 6.19L30.45 6.78L29.72 6.90L30.91 8.69L32.19 6.92L31.44 6.78L31.44 6.19L33.81 6.19L33.81 6.78L32.97 6.93L31.25 9.20L33.26 12.12ZM37.48 9.18L40.01 9.18L38.77 5.61L37.48 9.18ZM42.74 12.11L43.72 12.22L43.72 12.85L39.76 12.85L39.76 12.22L41.01 12.07L40.25 9.90L37.23 9.90L36.46 12.03L37.70 12.21L37.70 12.85L34.52 12.85L34.52 12.21L35.73 12.03L38.79 3.58L39.63 3.58L42.74 12.11ZM48.37 4.23L47.17 4.35Q47.14 5.24 47.14 6.13Q47.14 7.01 47.14 7.92L47.14 7.92L47.14 8.51Q47.14 9.41 47.14 10.30Q47.14 11.19 47.17 12.08L47.17 12.08L48.37 12.21L48.37 12.85L44.21 12.85L44.21 12.21L45.42 12.08Q45.44 11.20 45.44 10.31Q45.44 9.42 45.44 8.51L45.44 8.51L45.44 7.92Q45.44 7.03 45.44 6.14Q45.44 5.25 45.42 4.35L45.42 4.35L44.21 4.23L44.21 3.58L48.37 3.58L48.37 4.23Z"></path></g><!----><!----></svg>